<?xml version="1.0" standalone="no"?><!DOCTYPE svg PUBLIC "-//W3C//DTD SVG 1.1//EN" "http://www.w3.org/Graphics/SVG/1.1/DTD/svg11.dtd"><svg t="1611244363226" class="icon" viewBox="0 0 1024 1024" version="1.1" xmlns="http://www.w3.org/2000/svg" p-id="6507" width="16" height="16" xmlns:xlink="http://www.w3.org/1999/xlink"><defs><style type="text/css"></style></defs><path d="M511.9488 910.848c-219.9552 0-398.848-178.944-398.848-398.848s178.944-398.848 398.848-398.848 398.848 178.944 398.848 398.848-178.8928 398.848-398.848 398.848z m0-756.736c-197.3248 0-357.888 160.5632-357.888 357.888s160.5632 357.888 357.888 357.888 357.888-160.5632 357.888-357.888-160.5632-357.888-357.888-357.888z" fill="#888888" p-id="6508"></path><path d="M511.9488 628.8896c-98.9696 0-179.5072-80.5376-179.5072-179.5072S412.928 269.824 511.9488 269.824c98.9696 0 179.5072 80.5376 179.5072 179.5072s-80.5376 179.5584-179.5072 179.5584z m0-318.1056c-76.3904 0-138.5472 62.1568-138.5472 138.5472s62.1568 138.5472 138.5472 138.5472c76.3904 0 138.5472-62.1568 138.5472-138.5472S588.3392 310.784 511.9488 310.784z" fill="#888888" p-id="6509"></path><path d="M795.1872 782.6944c-6.7072 0-13.2608-3.2768-17.2032-9.3184-58.8288-90.4704-158.3104-144.4864-266.0352-144.4864-107.3152 0-206.5408 53.6576-265.4208 143.5136a20.4288 20.4288 0 0 1-28.3648 5.888 20.48 20.48 0 0 1-5.888-28.3648c66.5088-101.4784 178.5344-162.048 299.6736-162.048 121.7024 0 233.984 60.9792 300.3904 163.1232a20.48 20.48 0 0 1-5.9904 28.3136c-3.4816 2.304-7.3216 3.3792-11.1616 3.3792z" fill="#888888" p-id="6510"></path></svg>